<svg version="1.1" id="Layer_1" xmlns="http://www.w3.org/2000/svg" xmlns:xlink="http://www.w3.org/1999/xlink" x="0px" y="0px" width="40" height="40" viewBox="0 0 500 500" enable-background="new 0 0 500 500" xml:space="preserve" class="svg" preserveAspectRatio="xMidYMid " style="width: 256px; height: 256px;">
<path fill-rule="evenodd" clip-rule="evenodd" fill="#C5926A" d="M192.422,169.376c0,4.481,0,8.962,0,13.444
  C190.828,180.536,190.828,171.66,192.422,169.376z" id="path-0"></path>
<path fill-rule="evenodd" clip-rule="evenodd" fill="#E5D1C3" d="M167.456,217.389c0,4.481,0,8.962,0,13.443
  C165.861,228.548,165.861,219.672,167.456,217.389z" id="path-1"></path>
<path fill-rule="evenodd" clip-rule="evenodd" fill="#E5D1C3" d="M304.771,226.031c1.597,3.866,1.597,14.378,0,18.245
  C304.771,238.194,304.771,232.112,304.771,226.031z" id="path-2"></path>
<path fill-rule="evenodd" clip-rule="evenodd" fill="#7C2C01" d="M297.089,234.673c-1.492,3.139,3.34,12.273-1.921,16.324
  c-4.741,0.9-6.512-1.169-8.642-2.881c-0.43-4.27,0.683-6.999,1.92-9.603C290.1,236.006,296.117,237.863,297.089,234.673z" id="path-3"></path>
<path fill-rule="evenodd" clip-rule="evenodd" fill="#7C2C01" d="M251.957,236.593c5.081,1.127-1.042,2.149-0.96,3.841
  c0.156,3.214,4.122,4.354,3.841,7.682c-1.418,16.824-26.018,8.315-15.364-6.722C242.836,238.995,250.19,240.588,251.957,236.593z" id="path-4"></path>
<path fill-rule="evenodd" clip-rule="evenodd" fill="#9F5C33" d="M300.93,255.799c-1.589-1.036-1.589-8.567,0-9.603
  C300.93,249.396,300.93,252.598,300.93,255.799z" id="path-5"></path>
<path fill-rule="evenodd" clip-rule="evenodd" fill="#9F5C33" d="M274.043,299.97c1.035-1.59,8.567-1.59,9.603,0
  C280.444,299.97,277.244,299.97,274.043,299.97z" id="path-6"></path>
<path fill-rule="evenodd" clip-rule="evenodd" fill="#9F5C33" d="M287.486,168.416c2.372,5.629-1.086,17.09,4.802,19.205
  C285.913,185.993,287.617,176.288,287.486,168.416z" id="path-7"></path>
<path fill-rule="evenodd" clip-rule="evenodd" fill="#F9C079" d="M192.422,182.82c1.528,4.659,2.397,8.356,0,12.483
  c9.096-7.869,15.012-18.917,25.927-24.966c1.012-4.012-2.022-6.506,0-8.642c10.279-5.367,26.432-3.724,38.41-0.96
  c1.216-1.591-5.711-3.209-7.682-4.801c5.709-11.895,12.513-22.696,24.006-28.807c4.153,12.119-11.126,18.939-9.603,34.569
  c-0.352,4.171-1.665,2.897-3.841,3.841c26.239,14.411,46.078,35.223,41.29,80.661c-1.589,1.036-1.589,8.567,0,9.603
  c0,0.319,0,0.64,0,0.96c-23.532,3.688-13.358-26.332-28.808-30.728c-22.575,8.582,9.595,31.049,0,47.052
  c-10.37,17.298-48.821-4.085-63.376,15.363c-54.892-16.324-40.926-124.054-11.523-158.44c2.155,2.326,4.034,4.929,5.762,7.682
  c-3.989,10.094-8.79,19.378-10.563,31.688C190.828,171.66,190.828,180.536,192.422,182.82z M288.446,238.514
  c-1.237,2.604-2.35,5.333-1.92,9.603c2.13,1.711,3.9,3.781,8.642,2.881c5.261-4.051,0.429-13.185,1.921-16.324
  C296.117,237.863,290.1,236.006,288.446,238.514z M239.474,241.395c-10.654,15.037,13.946,23.546,15.364,6.722
  c0.281-3.327-3.685-4.467-3.841-7.682c-0.082-1.692,6.041-2.714,0.96-3.841C250.19,240.588,242.836,238.995,239.474,241.395z" id="path-8"></path>
<path fill-rule="evenodd" clip-rule="evenodd" fill="#FFFFFF" d="M196.263,169.376c0.784-11.059,5.375-18.311,8.642-26.887
  c5.201,6.642,7.436,16.25,11.523,24.006c-6.542,6.262-14.244,11.363-19.205,19.205C195.002,182.16,196.889,174.512,196.263,169.376z
  " id="path-9"></path>
<path fill-rule="evenodd" clip-rule="evenodd" fill="#E5D1C3" d="M196.263,169.376c0.625,5.136-1.261,12.784,0.96,16.324
  c0,0.64,0,1.28,0,1.921C193.538,185.525,195.195,173.031,196.263,169.376z" id="path-10"></path>
<path fill-rule="evenodd" clip-rule="evenodd" fill="#FFFFFF" d="M234.673,292.288c-1.92,0-3.841,0-5.761,0
  c0.195,3.325,5.293,1.748,7.682,2.88c-8.528,17.031-10.54,53.192,17.285,49.934c1.105,1.135,1.087,3.394,0.96,5.761
  c0,3.201,0,6.402,0,9.603c0.428,4.269-2.601,5.081-3.841,7.683c-3.201,0-6.401,0-9.603,0c1.131-10.734-2.997-16.208-4.801-24.007
  c-4.194,0.287-7.421,1.541-10.563,2.881c-2.332-3.43-5.561-5.962-8.642-8.642c-4.178-1.861-5.315,4.186-6.722,1.92
  c-4.192-4.45-2.138-15.146-7.682-18.244c-2.166-0.716-0.375-5.387-0.96-7.683c-0.338-8.98,2.875-14.41,3.841-22.085
  c1.27-0.441,6.3-1.872,2.88-3.842c14.555-19.448,53.006,1.935,63.376-15.363c9.595-16.003-22.575-38.471,0-47.052
  c15.449,4.396,5.275,34.416,28.808,30.728c19.322,19.662-20.215,37.039-45.131,35.529
  C248.756,292.288,241.715,292.288,234.673,292.288z M291.327,266.361c0.361,5.868,12.017,4.801,11.523-0.961
  c-0.748-0.212-1.116-0.804-0.96-1.92C297.682,263.754,291.935,262.487,291.327,266.361z" id="path-11"></path>
<path fill-rule="evenodd" clip-rule="evenodd" fill="#E5D1C3" d="M271.162,296.129c-9.779,2.373-24.265,0.581-10.563-0.961
  c4.197-0.472,8.831,0.239,11.522-0.96C271.94,294.986,271.159,295.165,271.162,296.129z" id="path-12"></path>
<path fill-rule="evenodd" clip-rule="evenodd" fill="#F9C079" d="M253.878,345.102c-27.825,3.259-25.813-32.902-17.285-49.934
  c13.109,1.787,21.403,8.448,37.45,4.802c3.201,0,6.401,0,9.603,0c6.569,2.781,13.79-1.229,17.284-0.96
  c-1.447,16.514,9.617,28.493,1.921,46.092c-5.434,0.968-8.887,3.917-14.404,4.801c-0.96,0-1.92,0-2.88,0
  c-5.535-4.067-8.202-11.003-7.683-21.125c-3.481,0.68-1.323,6.998-1.92,10.563c-3.349-0.42-16.68,0.474-18.245,4.801
  C256.76,340.575,253.246,338.719,253.878,345.102z" id="path-13"></path>
<path fill-rule="evenodd" clip-rule="evenodd" fill="#7C2C01" d="M167.456,217.389c3.205-36.806,9.842-70.179,28.808-91.224
  c11.635,5.969,14.518,20.691,20.165,32.648c6.981-3.582,16.678-4.448,27.847-3.841c8.61-12.195,15.291-26.32,29.768-32.648
  c6.578,13.267,11.213,28.477,13.443,46.092c0.131,7.872-1.573,17.577,4.802,19.205c6.907,10.057,11.155,22.773,12.482,38.41
  c0,6.082,0,12.163,0,18.245c-5.873,11.054,5.175,14.54,5.762,22.086c1.374,17.664-21.953,23.651-38.41,27.847
  c-2.691,1.199-7.325,0.488-11.522,0.96c-13.702,1.542,0.783,3.334,10.563,0.961c0.96,0,1.921,0,2.881,0c3.201,0,6.401,0,9.603,0
  c7.551,3.712,11.259-0.388,18.245-1.921c4.886,3.853,0.898,8.781,1.92,14.404c1.044,5.744,5.415,10.509,5.762,16.323
  c0.419,7.044-3.985,13.697-1.921,21.126c0,3.201,0,6.401,0,9.603c-1.356,5.365-2.344,11.1-5.761,14.403
  c-7.843,0.16-14.949-0.415-21.126-1.92c-0.874-5.208-1.746-10.418-3.841-14.404c-2.551,0.01-5.484-0.362-6.722,0.961
  c-3.521,0-7.042,0-10.563,0c-2.083-0.162-0.436,3.405-0.961,4.801c-1.101,17.411-18.303,10.132-32.648,11.522
  c-1.288-10.875-1.592-22.734-8.642-27.847c-3.565-3.085-3.591,3.519-8.643,1.921c-4.824-5.099-1.771-18.074-10.563-19.205
  c0-3.201,0-6.401,0-9.603c0.324-10.239,3.744-17.382,5.762-25.927c-21.637-10.371-33.089-30.928-36.49-59.535
  C167.456,226.351,167.456,221.87,167.456,217.389z M300.93,246.196c4.788-45.438-15.051-66.25-41.29-80.661
  c2.176-0.944,3.489,0.33,3.841-3.841c-1.523-15.629,13.756-22.45,9.603-34.569c-11.493,6.111-18.297,16.913-24.006,28.807
  c1.971,1.592,8.898,3.21,7.682,4.801c-11.978-2.764-28.131-4.407-38.41,0.96c-2.022,2.136,1.012,4.63,0,8.642
  c-10.915,6.05-16.831,17.098-25.927,24.966c2.397-4.127,1.528-7.824,0-12.483c0-4.481,0-8.962,0-13.444
  c1.773-12.31,6.574-21.594,10.563-31.688c-1.728-2.753-3.606-5.355-5.762-7.682c-29.403,34.386-43.369,142.116,11.523,158.44
  c3.42,1.97-1.61,3.4-2.88,3.842c-0.967,7.675-4.18,13.104-3.841,22.085c-1.865,0.394-1.545,11.659,0.96,7.683
  c5.544,3.098,3.49,13.794,7.682,18.244c1.407,2.266,2.544-3.781,6.722-1.92c3.081,2.68,6.31,5.212,8.642,8.642
  c3.141-1.34,6.368-2.594,10.563-2.881c1.804,7.799,5.933,13.272,4.801,24.007c3.201,0,6.402,0,9.603,0
  c1.24-2.602,4.269-3.414,3.841-7.683c1.59-1.035,1.59-8.566,0-9.603c0.127-2.367,0.146-4.626-0.96-5.761
  c-0.632-6.383,2.882-4.526,3.841-0.961c-0.557,3.118,0.654,4.468,0.96,6.722c6.895-0.147,14.656,0.572,20.165-0.96
  c-0.867-3.614-2.751-6.21-2.88-10.563c0.597-3.564-1.562-9.883,1.92-10.563c-0.52,10.122,2.147,17.058,7.683,21.125
  c0.96,0,1.92,0,2.88,0c8.701,0.627,1.244,11.516,4.802,17.284c11.852,1.521,12.346-13.141,10.563-22.085c-0.32,0-0.64,0-0.96,0
  c7.696-17.599-3.368-29.578-1.921-46.092c-3.494-0.269-10.715,3.741-17.284,0.96c-1.035-1.59-8.567-1.59-9.603,0
  c-16.047,3.646-24.341-3.015-37.45-4.802c-2.388-1.132-7.487,0.445-7.682-2.88c1.92,0,3.841,0,5.761,0
  c4.821,1.598,16.305,1.598,21.126,0c24.916,1.51,64.453-15.867,45.131-35.529c0-0.32,0-0.641,0-0.96
  C300.93,252.598,300.93,249.396,300.93,246.196z M275.964,137.688c-5.209,7.915-9.838,16.409-10.563,28.808
  c7.25,3.313,13.526,7.6,19.205,12.483C284.475,162.466,281.766,148.53,275.964,137.688z M197.223,185.7
  c4.961-7.842,12.664-12.943,19.205-19.205c-4.087-7.756-6.322-17.365-11.523-24.006c-3.268,8.576-7.858,15.828-8.642,26.887
  c-1.068,3.655-2.725,16.149,0.96,18.245C197.223,186.98,197.223,186.34,197.223,185.7z M226.991,350.862
  c0.097,6.873,2.916,10.806,0.96,17.285C245.587,372.146,236.932,343.085,226.991,350.862z M279.805,352.783
  c2.589,3.173,4.727,6.797,3.841,13.443c1.601,0,3.201,0,4.801,0c0.809-3.673,1.255-7.708,0.961-12.483
  C286.401,352.557,283.003,351.19,279.805,352.783z" id="path-14"></path>
<path fill-rule="evenodd" clip-rule="evenodd" fill="#FFFFFF" d="M284.605,178.979c-5.679-4.883-11.955-9.169-19.205-12.483
  c0.726-12.398,5.354-20.893,10.563-28.808C281.766,148.53,284.475,162.466,284.605,178.979z" id="path-15"></path>
<path fill-rule="evenodd" clip-rule="evenodd" fill="#7C2C01" d="M301.891,263.48c-0.156,1.116,0.212,1.708,0.96,1.92
  c0.493,5.762-11.162,6.829-11.523,0.961C291.935,262.487,297.682,263.754,301.891,263.48z" id="path-16"></path>
<path fill-rule="evenodd" clip-rule="evenodd" fill="#9F5C33" d="M234.673,292.288c7.042,0,14.083,0,21.126,0
  C250.978,293.886,239.494,293.886,234.673,292.288z" id="path-17"></path>
<path fill-rule="evenodd" clip-rule="evenodd" fill="#C5926A" d="M274.043,296.129c1.035-1.59,8.567-1.59,9.603,0
  C280.444,296.129,277.244,296.129,274.043,296.129z" id="path-18"></path>
<path fill-rule="evenodd" clip-rule="evenodd" fill="#9F5C33" d="M202.024,314.373c0.585,2.296-1.205,6.967,0.96,7.683
  C200.479,326.032,200.159,314.767,202.024,314.373z" id="path-19"></path>
<path fill-rule="evenodd" clip-rule="evenodd" fill="#9F5C33" d="M198.184,316.294c0,3.201,0,6.401,0,9.603
  C196.594,324.86,196.594,317.329,198.184,316.294z" id="path-20"></path>
<path fill-rule="evenodd" clip-rule="evenodd" fill="#FFFFFF" d="M227.951,368.147c1.956-6.479-0.863-10.412-0.96-17.285
  C236.932,343.085,245.587,372.146,227.951,368.147z" id="path-21"></path>
<path fill-rule="evenodd" clip-rule="evenodd" fill="#FFFFFF" d="M289.407,353.743c0.294,4.775-0.152,8.811-0.961,12.483
  c-1.6,0-3.2,0-4.801,0c0.886-6.646-1.252-10.271-3.841-13.443C283.003,351.19,286.401,352.557,289.407,353.743z" id="path-22"></path>
<path fill-rule="evenodd" clip-rule="evenodd" fill="#9F5C33" d="M254.838,350.862c1.59,1.036,1.59,8.567,0,9.603
  C254.838,357.265,254.838,354.063,254.838,350.862z" id="path-23"></path>
<path fill-rule="evenodd" clip-rule="evenodd" fill="#9F5C33" d="M307.651,346.062c1.59,1.035,1.59,8.567,0,9.603
  C307.651,352.463,307.651,349.263,307.651,346.062z" id="path-24"></path>
<path fill-rule="evenodd" clip-rule="evenodd" fill="#E5D1C3" d="M258.679,359.505c0.525-1.396-1.122-4.963,0.961-4.801
  c3.521,0,7.041,0,10.563,0C267.206,357.149,258.023,353.408,258.679,359.505z" id="path-25"></path>
<path fill-rule="evenodd" clip-rule="evenodd" fill="#FFFFFF" d="M257.719,344.141c1.565-4.327,14.896-5.221,18.245-4.801
  c0.129,4.353,2.013,6.948,2.88,10.563c-5.509,1.532-13.271,0.813-20.165,0.96C258.373,348.608,257.162,347.259,257.719,344.141z" id="path-26"></path>
<path fill-rule="evenodd" clip-rule="evenodd" fill="#FFFFFF" d="M288.446,349.902c5.518-0.884,8.971-3.833,14.404-4.801
  c0.32,0,0.64,0,0.96,0c1.783,8.944,1.289,23.606-10.563,22.085C289.69,361.418,297.147,350.529,288.446,349.902z" id="path-27"></path>
</svg>